# AST/ASF file generated using VICON BodyLanguage
# -----------------------------------------------
:version 1.10
:name VICON
:units
  mass 1.0
  length 0.45
  angle deg
:documentation
   .ast/.asf automatically generated from VICON data using
   VICON BodyBuilder and BodyLanguage model FoxedUp or BRILLIANT.MOD
:root
   order TX TY TZ RX RY RZ
   axis XYZ
   position 0 0 0  
   orientation 0 0 0 
:bonedata
  begin
     id 1 
     name lhipjoint
     direction 0.70531 -0.63749 0.310071 
     length 2.59589 
     axis 0 0 0  XYZ
  end
  begin
     id 2 
     name lfemur
     direction 0.34202 -0.939693 0  
     length 6.19797  
     axis 0 0 20  XYZ
    dof rx ry rz
    limits (-160.0 20.0)
           (-70.0 70.0)
           (-60.0 70.0)
  end
  begin
     id 3 
     name ltibia
     direction 0.34202 -0.939693 0   
     length 7.80054   
     axis 0 0 20   XYZ
    dof rx
    limits (-10.0 170.0)
  end
  begin
     id 4 
     name lfoot
     direction 0.0828572 -0.227648 0.970212   
     length 1.88124   
     axis -90 7.62852e-016 20   XYZ
    dof rx rz
    limits (-45.0 90.0)
           (-70.0 20.0)
  end
  begin
     id 5 
     name ltoes
     direction 1.53544e-011 -4.219e-011 1   
     length 0.948015   
     axis -90 7.62852e-016 20   XYZ
    dof rx
    limits (-90.0 20.0)
  end
  begin
     id 6 
     name rhipjoint
     direction -0.730062 -0.614543 0.29891   
     length 2.69282  
     axis 0 0 0  XYZ 
  end
  begin
     id 7 
     name rfemur
     direction -0.34202 -0.939693 0   
     length 5.86298   
     axis 0 0 -20   XYZ
    dof rx ry rz
    limits (-160.0 20.0)
           (-70.0 70.0)
           (-70.0 60.0)
  end
  begin
     id 8 
     name rtibia
     direction -0.34202 -0.939693 0   
     length 7.72374   
     axis 0 0 -20   XYZ
    dof rx
    limits (-10.0 170.0)
 end
 begin
     id 9 
     name rfoot
     direction -0.0967421 -0.265797 0.959163   
     length 2.02368  
     axis -90 -7.62852e-016 -20   XYZ
    dof rx rz
    limits (-45.0 90.0)
           (-20.0 70.0)
  end
  begin
     id 10 
     name rtoes
     direction -1.53524e-011 -4.21768e-011 1   
     length 1.01373   
     axis -90 -7.62852e-016 -20   XYZ
    dof rx
    limits (-90.0 20.0)
  end
  begin
     id 11 
     name lowerback
     direction 0.00561702 0.992801 -0.119643   
     length 2.02816   
     axis 0 0 0   XYZ
    dof rx ry rz
    limits (-20.0 45.0)
           (-30.0 30.0)
           (-30.0 30.0)
  end
  begin
     id 12 
     name upperback
     direction 0.00155544 0.995735 -0.0922509   
     length 2.02265   
     axis 0 0 0   XYZ
    dof rx ry rz
    limits (-20.0 45.0)
           (-30.0 30.0)
           (-30.0 30.0)
  end
  begin
     id 13 
     name thorax
     direction -0.000937535 0.999317 -0.0369292   
     length 2.04823   
     axis 0 0 0   XYZ
    dof rx ry rz
    limits (-20.0 45.0)
           (-30.0 30.0)
           (-30.0 30.0)
  end
  begin
     id 14 
     name lowerneck
     direction -0.0813151 0.981659 0.172436   
     length 1.8875   
     axis 0 0 0   XYZ
    dof rx ry rz
    limits (-20.0 45.0)
           (-30.0 30.0)
           (-30.0 30.0)
  end
  begin
     id 15 
     name upperneck
     direction 0.119359 0.955672 -0.269157   
     length 1.92801   
     axis 0 0 0   XYZ
    dof rx ry rz
    limits (-20.0 45.0)
           (-30.0 30.0)
           (-30.0 30.0)
  end
  begin
     id 16
     name head
     direction 0.0421007 0.992672 -0.113268  
     length 1.95809  
     axis 0 0 0   XYZ
    dof rx ry rz
    limits (-20.0 45.0)
           (-30.0 30.0)
           (-30.0 30.0)
  end
  begin
     id 17 
     name lclavicle
     direction 0.944093 0.32865 -0.0260136  
     length 3.84992  
     axis 0 0 0   XYZ
    dof ry rz
    limits (-20.0 10.0)
           (0.0 20.0)
  end
  begin
     id 18 
     name lhumerus
     direction 1 -4.48979e-011 -1.27712e-029   
     length 5.53593   
     axis 180 -30 -90   XYZ
    dof rx ry rz
    limits (-60.0 90.0)
           (-90.0 90.0)
           (-90.0 90.0)
  end
  begin
     id 19
     name lradius
     direction 1 -4.48966e-011 1.00051e-028   
     length 3.13345   
     axis 180 -30 -90   XYZ
    dof rx
    limits (-10.0 170.0)
  end
  begin
     id 20
     name lwrist
     direction 1 -4.4896e-011 2.56952e-028   
     length 1.56673   
     axis -5.12785e-016 90 90   XYZ
    dof ry
    limits (-180.0 0.0)
 end
  begin
     id 21 
     name lhand
     direction 1 -4.48934e-011 5.13905e-028   
     length 0.713374   
     axis -3.27915e-016 90 90   XYZ
    dof rx rz
    limits (-90.0 90.0)
           (-45.0 45.0)
  end
  begin
     id 22 
     name lfingers
     direction 1 -4.48973e-011 1.02781e-027   
     length 0.575141   
     axis -6.5583e-016 90 90   XYZ
    dof rx
    limits (0.0 90.0)
  end
  begin
     id 23
     name lthumb
     direction 0.707107 -6.34883e-011 0.707107   
     length 0.82579   
     axis -90 45 2.85299e-015   XYZ
    dof rx rz
    limits (-45.0 45.0)
           (-45.0 45.0)
  end
  begin
     id 24 
     name rclavicle
     direction -0.936895 0.34884 0.0232243   
     length 3.53304  
     axis 0 0 0   XYZ 
    dof ry rz
    limits (-10.0 20.0)
           (-20.0 0.0)
  end
  begin
     id 25 
     name rhumerus
     direction -1 -4.48965e-011 1.05514e-027  
     length 5.4685   
     axis 180 30 90   XYZ
    dof rx ry rz
    limits (-90.0 60.0)
           (-90.0 90.0)
           (-90.0 90.0)
  end
  begin
     id 26 
     name rradius
     direction -1 -4.48964e-011 -1.1079e-027   
     length 3.22411   
     axis 180 30 90   XYZ
    dof rx
    limits (-10.0 170.0)
  end
  begin
     id 27 
     name rwrist
     direction -1 -4.48973e-011 2.56952e-028   
     length 1.61206   
     axis -5.12785e-016 -90 -90   XYZ
    dof ry
    limits (-180.0 0.0)
  end
  begin
     id 28
     name rhand
     direction -1 -4.48957e-011 5.13905e-028   
     length 0.74528   
     axis -3.27915e-016 -90 -90   XYZ
    dof rx rz
    limits (-90.0 90.0)
           (-45.0 45.0)
  end
  begin
     id 29
     name rfingers
     direction -1 -4.4901e-011 1.02781e-027   
     length 0.600864   
     axis -6.5583e-016 -90 -90   XYZ
    dof rx
    limits (0.0 90.0)
  end
  begin
     id 30
     name rthumb
     direction -0.707107 -6.34972e-011 0.707107   
     length 0.862724   
     axis -90 -45 -2.85299e-015   XYZ
    dof rx rz
    limits (-45.0 45.0)
           (-45.0 45.0)
  end
:hierarchy
  begin
    root lhipjoint rhipjoint lowerback
    lhipjoint lfemur
    lfemur ltibia
    ltibia lfoot
    lfoot ltoes
    rhipjoint rfemur
    rfemur rtibia
    rtibia rfoot
    rfoot rtoes
    lowerback upperback
    upperback thorax
    thorax lowerneck lclavicle rclavicle
    lowerneck upperneck
    upperneck head
    lclavicle lhumerus
    lhumerus lradius
    lradius lwrist
    lwrist lhand lthumb
    lhand lfingers
    rclavicle rhumerus
    rhumerus rradius
    rradius rwrist
    rwrist rhand rthumb
    rhand rfingers
  end

#!OML:ASF G:\Work\Work\Patient Classification 1\Liu\Session 1\Liu.ASF
:FULLY-SPECIFIED
:DEGREES
81
root 10.7138 16.9282 -31.681 4.80258 2.41704 4.45525
lowerback 0.50919 -2.79358 -6.43109
upperback 1.49952 -3.6836 -1.68242
thorax 1.55662 -1.90891 1.81877
lowerneck -12.4373 -10.581 -17.5498
upperneck 15.9212 -13.2926 11.8191
head 9.03309 -6.34679 5.15168
rclavicle 3.01656e-014 1.94809e-014
rhumerus -44.5556 15.9853 -90.7197
rradius 45.7231
rwrist -11.35
rhand -16.41 17.6463
rfingers 7.12502
rthumb 9.8046 -12.1055
lclavicle 3.01656e-014 1.94809e-014
lhumerus -21.6118 -14.1634 84.6524
lradius 35.1505
lwrist 1.76718
lhand -11.5018 34.7611
lfingers 7.12502
lthumb 14.5371 64.2318
rfemur -32.9963 -3.42227 17.3964
rtibia 36.5666
rfoot -15.499 -11.2901
rtoes -18.1476
lfemur -4.99555 -1.30628 -31.5957
ltibia 22.7119
lfoot -22.7463 -0.168244
ltoes -10.271
82
root 10.7075 16.9188 -31.5459 4.94437 2.64936 4.714
lowerback 0.226791 -2.82762 -6.68058
upperback 1.66755 -3.69428 -1.70667
thorax 1.90525 -1.9298 1.90921
lowerneck -12.9769 -10.8276 -17.5256
upperneck 16.0264 -13.5355 11.7226
head 9.19552 -6.44546 5.05074
rclavicle 2.44008e-014 3.49861e-014
rhumerus -44.283 15.8837 -90.5337
rradius 45.745
rwrist -11.3871
rhand -15.8866 16.5609
rfingers 7.12502
rthumb 10.3096 -13.1664
lclavicle 2.44008e-014 3.49861e-014
lhumerus -21.0082 -14.5603 84.7172
lradius 35.1621
lwrist 2.22155
lhand -12.4844 33.549
lfingers 7.12502
lthumb 13.5901 63.0854
rfemur -33.0007 -2.737 16.894
rtibia 34.2401
rfoot -15.2167 -12.1446
rtoes -20.3323
lfemur -4.17664 -1.30065 -31.8272
ltibia 21.8441
lfoot -22.3156 -0.376369
ltoes -8.28913
83
root 10.7039 16.9135 -31.4062 5.0873 2.8951 5.01589
lowerback 0.109955 -2.90319 -6.96424
upperback 1.58977 -3.78538 -1.75382
thorax 1.91436 -1.97733 2.01052
lowerneck -13.1216 -10.9006 -17.5548
upperneck 16.2164 -13.632 11.7565
head 9.30722 -6.48416 5.04561
rclavicle -5.37713e-014 -2.3059e-014
rhumerus -44.5962 15.8823 -90.5819
rradius 45.9688
rwrist -11.6169
rhand -16.2734 17.1585
rfingers 7.12502
rthumb 9.93643 -12.587
lclavicle -5.37713e-014 -2.3059e-014
lhumerus -20.951 -14.8331 84.8116
lradius 35.2593
lwrist 2.03231
lhand -13.252 32.1587
lfingers 7.12502
lthumb 12.8503 61.7432
rfemur -32.9119 -1.81425 16.1387
rtibia 32.1242
rfoot -15.6618 -12.5713
rtoes -18.5857
lfemur -3.2283 -1.45149 -32.1301
ltibia 20.9013
lfoot -22.1296 -0.530062
ltoes -6.75382
84
root 10.7044 16.9101 -31.2665 5.22439 3.07833 5.22727
lowerback 0.0870065 -2.96653 -7.04671
upperback 1.35841 -3.87857 -1.82341
thorax 1.69657 -2.01307 1.98911
lowerneck -12.7568 -10.8128 -17.6475
upperneck 16.2291 -13.5907 11.911
head 9.25852 -6.47208 5.13699
rclavicle -1.00883e-014 -9.93923e-015
rhumerus -45.097 16.0335 -90.8746
rradius 45.9953
rwrist -11.9967
rhand -16.4285 17.5008
rfingers 7.12502
rthumb 9.78673 -12.2518
lclavicle -1.00883e-014 -9.93923e-015
lhumerus -21.1546 -15.0349 84.8935
lradius 35.3946
lwrist 1.75827
lhand -13.3254 31.8524
lfingers 7.12502
lthumb 12.7795 61.4413
rfemur -32.9477 -0.768523 15.3939
rtibia 30.2648
rfoot -16.4504 -12.9786
rtoes -16.7017
lfemur -2.18682 -1.60494 -32.3677
ltibia 19.7986
lfoot -22.0942 -0.333148
ltoes -6.59705
85
root 10.7056 16.9039 -31.133 5.3795 3.16683 5.45681
lowerback -0.164073 -2.94044 -7.04008
upperback 1.36588 -3.81856 -1.96313
thorax 1.83007 -1.98569 1.82906
lowerneck -12.4186 -10.8981 -17.5846
upperneck 15.9096 -13.7492 11.8939
head 9.1071 -6.55568 5.10611
rclavicle 1.34677e-014 -5.56597e-015
rhumerus -45.1509 15.9886 -91.0424
rradius 45.9714
rwrist -12.2185
rhand -16.372 17.4818
rfingers 7.12502
rthumb 9.84124 -12.2682
lclavicle 1.34677e-014 -5.56597e-015
lhumerus -20.9002 -15.4313 84.8595
lradius 35.5993
lwrist 2.01068
lhand -13.1778 32.1244
lfingers 7.12502
lthumb 12.9218 61.7044
rfemur -33.2347 0.223656 14.6451
rtibia 28.594
rfoot -16.9754 -13.618
rtoes -16.4783
lfemur -1.22055 -1.67516 -32.6418
ltibia 18.6636
lfoot -21.9859 -0.028859
ltoes -6.51571
86
root 10.6954 16.8913 -30.9921 5.63716 2.96348 5.88224
lowerback -0.625214 -2.89701 -7.49241
upperback 1.34458 -3.71062 -2.03779
thorax 2.08373 -1.94397 1.97916
lowerneck -12.1372 -10.9374 -17.6024
upperneck 15.6355 -13.7996 11.7822
head 8.96356 -6.59941 5.0714
rclavicle 6.16232e-015 -1.63003e-014
rhumerus -45.3158 15.9874 -91.0445
rradius 46.2287
rwrist -12.1755
rhand -16.5388 17.7314
rfingers 7.12502
rthumb 9.68037 -12.0261
lclavicle 6.16232e-015 -1.63003e-014
lhumerus -20.656 -15.5962 84.9172
lradius 35.6735
lwrist 2.24534
lhand -13.2636 32.1012
lfingers 7.12502
lthumb 12.8391 61.6864
rfemur -33.7821 1.79901 13.5486
rtibia 27.0716
rfoot -17.4913 -14.5311
rtoes -15.7085
lfemur -0.411574 -1.65562 -33.1373
ltibia 17.5709
lfoot -21.922 0.355938
ltoes -5.66073
87
root 10.691 16.882 -30.8524 5.73198 2.97753 5.81365
lowerback -0.780176 -2.94646 -7.39461
upperback 1.2867 -3.76839 -1.93112
thorax 2.11665 -1.97199 2.02614
lowerneck -12.1716 -10.9007 -17.6941
upperneck 15.6353 -13.6979 11.6649
head 8.95141 -6.56535 5.05979
rclavicle 2.83268e-015 -1.59028e-015
rhumerus -45.5266 16.1929 -91.0227
rradius 46.364
rwrist -11.818
rhand -15.9908 16.1787
rfingers 7.12502
rthumb 10.209 -13.5536
lclavicle 2.83268e-015 -1.59028e-015
lhumerus -20.5853 -15.4764 85.0257
lradius 35.7709
lwrist 2.21006
lhand -13.2895 31.9579
lfingers 7.12502
lthumb 12.8141 61.5446
rfemur -34.1035 3.59296 12.8159
rtibia 25.7449
rfoot -18.3266 -15.5026
rtoes -14.739
lfemur 0.631823 -1.5653 -33.0902
ltibia 16.4192
lfoot -21.7862 0.669609
ltoes -5.12636
